<?xml version="1.0" standalone="no"?>
<!DOCTYPE svg PUBLIC "-//W3C//DTD SVG 20010904//EN"
 "http://www.w3.org/TR/2001/REC-SVG-20010904/DTD/svg10.dtd">
<svg version="1.0" xmlns="http://www.w3.org/2000/svg"
 width="350.000000pt" height="350.000000pt" viewBox="0 0 350.000000 350.000000"
 preserveAspectRatio="xMidYMid meet">

<g transform="translate(0.000000,350.000000) scale(0.100000,-0.100000)"
fill="#000000" stroke="none">
<path d="M1553 2323 c9 -2 23 -2 30 0 6 3 -1 5 -18 5 -16 0 -22 -2 -12 -5z"/>
<path d="M2182 2226 c-26 -25 -44 -47 -41 -50 3 -3 27 17 54 44 61 62 51 66
-13 6z"/>
<path d="M1772 2217 c18 -27 36 -51 41 -54 16 -9 -10 31 -43 67 l-32 35 34
-48z"/>
<path d="M2284 2242 c3 -5 -14 -28 -38 -51 l-44 -43 24 -35 c13 -20 24 -41 24
-46 0 -13 77 60 91 86 12 20 -12 66 -43 86 -11 7 -18 8 -14 3z"/>
<path d="M1548 2193 c12 -2 30 -2 40 0 9 3 -1 5 -23 4 -22 0 -30 -2 -17 -4z"/>
<path d="M1553 2063 c9 -2 23 -2 30 0 6 3 -1 5 -18 5 -16 0 -22 -2 -12 -5z"/>
<path d="M1548 1813 c12 -2 30 -2 40 0 9 3 -1 5 -23 4 -22 0 -30 -2 -17 -4z"/>
<path d="M1553 1683 c9 -2 23 -2 30 0 6 3 -1 5 -18 5 -16 0 -22 -2 -12 -5z"/>
<path d="M1640 1590 c-11 -22 -18 -40 -16 -40 4 0 73 30 84 36 2 1 -1 12 -8
23 -17 32 -37 25 -60 -19z"/>
<path d="M660 1071 c-38 -20 -80 -88 -80 -131 0 -43 42 -111 80 -131 48 -26
264 -27 316 -3 53 25 79 69 79 134 0 65 -26 109 -79 134 -52 24 -268 23 -316
-3z m290 -46 c35 -18 50 -43 50 -85 0 -77 -42 -100 -179 -100 -111 0 -146 11
-167 51 -26 51 -10 109 37 135 35 19 221 19 259 -1z"/>
<path d="M1090 940 l0 -150 30 0 30 0 0 125 0 125 103 0 c88 0 106 -3 120 -18
19 -21 21 -40 7 -62 -7 -11 -35 -16 -103 -20 l-95 -5 84 -73 c78 -68 87 -73
124 -70 l41 3 -51 40 c-54 43 -61 55 -30 55 35 0 69 22 85 57 21 44 12 85 -27
118 -29 24 -34 25 -174 25 l-144 0 0 -150z"/>
<path d="M1628 1068 c-9 -13 -52 -80 -96 -150 l-82 -128 34 0 c33 0 38 5 107
115 40 63 75 115 78 115 7 -1 71 -104 71 -114 0 -3 -31 -6 -70 -6 -38 0 -70
-3 -70 -8 0 -4 7 -18 16 -30 13 -20 24 -22 95 -22 75 0 80 -1 91 -25 9 -20 19
-25 45 -25 19 0 33 4 31 9 -1 4 -43 72 -93 150 -78 123 -93 141 -116 141 -17
0 -32 -9 -41 -22z"/>
<path d="M1940 1072 c-50 -25 -80 -75 -80 -132 0 -57 30 -107 80 -132 27 -14
60 -18 141 -18 103 0 107 1 123 25 l16 25 -112 0 c-130 0 -155 9 -181 62 -16
33 -16 40 -4 71 24 57 48 67 161 67 82 0 101 3 112 18 7 9 14 20 14 25 0 4
-53 7 -117 7 -92 0 -126 -4 -153 -18z"/>
<path d="M2252 943 l3 -148 144 -3 c128 -2 145 -1 157 15 7 10 14 21 14 26 0
4 -58 7 -130 7 l-130 0 0 125 0 125 -30 0 -31 0 3 -147z"/>
<path d="M2645 1071 c-42 -26 -61 -50 -73 -93 -19 -68 15 -140 80 -174 18 -10
62 -14 137 -14 99 0 111 2 121 19 5 11 10 22 10 25 0 3 -51 6 -114 6 -109 0
-116 1 -145 26 -17 14 -31 30 -31 35 0 5 54 9 119 9 113 0 121 1 135 22 9 12
16 26 16 30 0 5 -61 8 -135 8 -74 0 -135 4 -135 8 0 5 12 19 26 33 23 21 37
25 131 29 96 5 107 7 121 28 l14 22 -123 0 c-103 0 -129 -3 -154 -19z"/>
<path d="M2953 1073 c-3 -7 -2 -20 1 -29 5 -13 9 -14 21 -4 10 9 15 9 15 1 0
-16 17 -14 23 3 3 7 0 13 -6 12 -7 0 -13 4 -13 9 -1 6 3 9 10 7 6 -2 8 0 3 4
-13 13 -49 11 -54 -3z m14 -25 c-3 -7 -5 -2 -5 12 0 14 2 19 5 13 2 -7 2 -19
0 -25z"/>
<path d="M1210 506 c0 -57 4 -96 10 -96 6 0 10 36 10 89 0 50 -4 93 -10 96 -6
4 -10 -28 -10 -89z"/>
<path d="M762 500 c-17 -49 -26 -90 -21 -90 6 0 15 14 20 30 9 25 16 30 44 30
29 0 34 -4 40 -30 4 -16 13 -30 20 -30 10 0 6 23 -17 90 -17 53 -35 90 -43 90
-8 0 -26 -37 -43 -90z m68 -11 c0 -5 -11 -9 -25 -9 -28 0 -29 4 -14 50 l12 32
13 -32 c8 -18 14 -36 14 -41z"/>
<path d="M1266 582 c-3 -6 -1 -14 5 -17 15 -10 25 3 12 16 -7 7 -13 7 -17 1z"/>
<path d="M1665 579 c-10 -15 3 -25 16 -12 7 7 7 13 1 17 -6 3 -14 1 -17 -5z"/>
<path d="M2070 500 l0 -90 50 0 c28 0 50 5 50 10 0 6 -18 10 -41 10 -39 0 -40
1 -37 33 3 28 7 33 38 38 l35 6 -37 2 c-35 1 -38 3 -38 31 0 28 3 30 35 30 19
0 35 5 35 10 0 6 -20 10 -45 10 l-45 0 0 -90z"/>
<path d="M1571 544 c-9 -11 -10 -18 -3 -23 6 -3 12 -29 14 -56 3 -45 6 -50 28
-53 22 -2 23 -1 8 8 -24 14 -26 100 -3 100 8 0 15 5 15 10 0 6 -7 10 -15 10
-8 0 -15 5 -15 10 0 14 -13 12 -29 -6z"/>
<path d="M910 453 c0 -56 4 -93 10 -93 6 0 10 13 10 28 0 26 3 28 28 24 38 -5
62 20 62 63 0 52 -40 80 -80 55 -9 -6 -17 -5 -22 3 -4 7 -8 -30 -8 -80z m88
27 c3 -23 -2 -38 -14 -47 -27 -19 -54 1 -54 41 0 40 7 48 40 44 21 -2 26 -9
28 -38z"/>
<path d="M1060 453 c0 -56 4 -93 10 -93 6 0 10 13 10 28 0 26 3 28 28 24 38
-5 62 20 62 63 0 52 -40 80 -80 55 -9 -6 -17 -5 -22 3 -4 7 -8 -30 -8 -80z
m88 27 c3 -23 -2 -38 -14 -47 -27 -19 -54 1 -54 41 0 40 7 48 40 44 21 -2 26
-9 28 -38z"/>
<path d="M1270 475 c0 -37 4 -65 10 -65 6 0 10 28 10 65 0 37 -4 65 -10 65 -6
0 -10 -28 -10 -65z"/>
<path d="M1340 520 c-42 -42 -13 -110 46 -110 19 0 34 5 34 11 0 6 -8 8 -19 4
-11 -3 -28 2 -42 14 -20 16 -22 23 -14 47 8 23 17 30 43 32 18 2 30 8 27 13
-10 16 -54 10 -75 -11z"/>
<path d="M1455 530 c-4 -6 6 -10 24 -10 43 0 45 -23 2 -35 -31 -9 -36 -15 -36
-40 0 -29 2 -30 48 -31 l47 -1 0 41 c0 23 -7 52 -16 64 -16 23 -58 30 -69 12z
m62 -67 c4 -12 -23 -43 -38 -43 -20 0 -22 33 -4 47 21 14 37 13 42 -4z"/>
<path d="M1667 533 c-11 -10 -8 -123 3 -123 6 0 10 28 10 65 0 65 -1 71 -13
58z"/>
<path d="M1742 524 c-15 -10 -22 -25 -22 -49 0 -41 22 -65 60 -65 54 0 79 71
40 110 -24 24 -48 25 -78 4z m72 -37 c8 -23 6 -31 -11 -48 -29 -30 -63 -11
-63 35 0 40 7 48 39 44 18 -2 29 -12 35 -31z"/>
<path d="M1870 475 c0 -37 4 -65 10 -65 6 0 10 19 10 43 0 46 13 67 41 67 21
0 29 -20 29 -71 0 -21 5 -39 10 -39 16 0 12 83 -6 108 -17 24 -43 29 -62 10
-9 -9 -12 -9 -12 0 0 7 -4 12 -10 12 -6 0 -10 -28 -10 -65z"/>
<path d="M2190 531 c0 -6 4 -13 10 -16 26 -16 29 -43 9 -69 -12 -15 -18 -30
-15 -34 4 -3 17 6 29 22 l23 28 12 -26 c6 -14 19 -26 27 -26 13 0 11 6 -6 30
-20 27 -21 32 -9 57 8 16 16 31 18 36 10 20 -15 4 -29 -20 l-17 -26 -17 26
c-17 27 -35 36 -35 18z"/>
<path d="M2327 534 c-11 -11 -8 -174 3 -174 6 0 10 13 10 30 0 28 2 29 30 23
40 -8 70 19 70 62 0 46 -32 73 -70 58 -18 -7 -30 -7 -32 -1 -2 5 -7 6 -11 2z
m86 -35 c13 -21 1 -65 -19 -73 -19 -7 -54 20 -54 41 0 47 50 69 73 32z"/>
<path d="M2477 534 c-11 -11 -8 -124 3 -124 6 0 10 18 10 40 0 27 7 47 21 61
22 22 19 39 -5 20 -10 -8 -15 -9 -18 -1 -2 6 -7 8 -11 4z"/>
<path d="M2570 520 c-25 -25 -26 -72 -2 -93 20 -18 82 -23 82 -7 0 6 -10 8
-24 4 -15 -3 -29 1 -40 11 -26 26 -19 35 29 35 37 0 45 3 45 18 0 23 -30 52
-53 52 -9 0 -26 -9 -37 -20z m63 -14 c8 -19 -1 -26 -35 -26 -30 0 -31 1 -22
24 8 20 50 21 57 2z"/>
<path d="M2703 533 c-23 -9 -15 -53 12 -65 31 -14 29 -44 -3 -41 -12 2 -22 -2
-22 -8 0 -6 14 -9 33 -7 27 2 33 8 35 30 3 22 -2 30 -22 40 -34 15 -34 38 0
38 14 0 23 4 19 10 -6 10 -31 12 -52 3z"/>
<path d="M2802 528 c-19 -19 -15 -31 20 -60 28 -23 31 -29 18 -38 -8 -5 -23
-7 -32 -4 -10 3 -18 0 -18 -6 0 -18 62 -7 74 13 9 15 5 23 -22 45 -34 28 -34
42 0 42 10 0 18 5 18 10 0 14 -43 13 -58 -2z"/>
</g>
</svg>
